Coordinates
version=1
nRows=29
nColumns=24
inDegrees=yes

Units are S.I. units (second, meters, Newtons, ...)
Angles are in degrees.

endheader
time	pelvis_tilt	pelvis_list	pelvis_rotation	pelvis_tx	pelvis_ty	pelvis_tz	hip_flexion_r	hip_adduction_r	hip_rotation_r	knee_angle_r	ankle_angle_r	subtalar_angle_r	mtp_angle_r	hip_flexion_l	hip_adduction_l	hip_rotation_l	knee_angle_l	ankle_angle_l	subtalar_angle_l	mtp_angle_l	lumbar_extension	lumbar_bending	lumbar_rotation
      1.22050000	      2.70306884	      3.87345838	     -5.08139188	      0.24164066	      1.01870684	      0.27557751	     10.08585929	     -6.40761103	     -2.05099530	    -64.42643952	     -4.28828637	     -9.52071253	      4.44296810	      2.72265952	      9.26267903	      6.48993682	    -12.70847725	      7.07276073	    -14.15147048	     -5.42317820	    -15.81807024	      2.22833069	     -1.70240465
      1.22466667	      2.66323188	      3.67953404	     -5.22886394	      0.24669855	      1.01938238	      0.27556889	     10.64247325	     -6.11469066	     -1.94916332	    -64.10232753	     -3.57033132	     -9.68795728	      4.36291655	      2.24876269	      9.07212526	      6.42243722	    -12.31926855	      7.09300489	    -14.16412935	     -5.46110452	    -15.80882087	      2.51320132	     -1.79402387
      1.22883333	      2.68404869	      3.47880756	     -5.37122464	      0.25177499	      1.02014786	      0.27556697	     11.10293575	     -5.81656952	     -1.85508501	    -63.69348657	     -2.85373038	     -9.78687530	      4.18430332	      1.68405316	      8.88028188	      6.38711673	    -11.87891674	      7.08823357	    -14.20630663	     -5.54260488	    -15.85632424	      2.79611293	     -1.98029453
      1.23300000	      2.62313378	      3.28466909	     -5.49215365	      0.25682097	      1.02075978	      0.27555948	     11.64409533	     -5.50937265	     -1.77363577	    -63.24599105	     -2.12035865	     -9.99909768	      4.13191072	      1.23942651	      8.68692614	      6.32074679	    -11.50508996	      7.10237879	    -14.20701811	     -5.57112466	    -15.82359123	      3.05572062	     -2.03090442
      1.23716667	      2.63209066	      3.06439977	     -5.60453582	      0.26187104	      1.02149351	      0.27550009	     12.07745359	     -5.18525884	     -1.70433580	    -62.71691045	     -1.32872099	    -10.01664630	      0.80973881	      0.66983688	      8.48615371	      6.40469001	    -11.03830235	      7.07004168	    -14.41386699	     -7.01190751	    -15.88498404	      3.39701917	     -2.17581282
      1.24133333	      2.59937439	      2.86187346	     -5.74380075	      0.26692559	      1.02211233	      0.27554154	     12.55129314	     -4.85340129	     -1.58842064	    -62.13586725	     -0.64167783	    -10.17891707	      0.79126462	      0.18426832	      8.27985848	      6.25766590	    -10.63796269	      7.07734014	    -14.30413309	     -7.01737418	    -15.87785008	      3.68483011	     -2.31230314
      1.24550000	      2.55015045	      2.64208458	     -5.84884684	      0.27196048	      1.02269741	      0.27553800	     13.01400500	     -4.50273678	     -1.50251193	    -61.48735110	      0.07514057	    -10.33028190	      0.77987139	     -0.27620062	      8.05893425	      6.17215215	    -10.26316607	      7.09031496	    -14.26607110	     -7.02461673	    -15.86996939	      3.99123374	     -2.39341144
      1.24966667	      2.55708983	      2.42149196	     -5.95986887	      0.27700243	      1.02334054	      0.27554558	     13.39518627	     -4.15682621	     -1.41310856	    -60.77161933	      0.75322810	    -10.42594810	      0.74493453	     -0.82206601	      7.84369610	      6.10257589	     -9.83492881	      7.09833001	    -14.22847730	     -7.04037703	    -15.91759158	      4.30306140	     -2.54914889
      1.25383333	      2.50005009	      2.21352640	     -6.05468678	      0.28203036	      1.02385492	      0.27554840	     13.83259878	     -3.81160624	     -1.32300978	    -60.01445221	      1.45215059	    -10.55683675	      0.72480193	     -1.27753437	      7.63618377	      6.02353754	     -9.44937720	      7.08747633	    -14.20616253	     -7.05325915	    -15.90519487	      4.59920851	     -2.63108774
      1.25800000	      2.51320953	      1.98302866	     -6.15123532	      0.28707248	      1.02445932	      0.27556003	     14.16252133	     -3.45011531	     -1.23467621	    -59.17441932	      2.08912095	    -10.64141468	      0.67630985	     -1.83422356	      7.41195129	      5.95966736	     -9.01658166	      7.07968748	    -14.18246157	     -7.07695235	    -15.96234288	      4.92206058	     -2.78497389
      1.26216667	      2.50035679	      1.76455979	     -6.23648095	      0.29210927	      1.02498125	      0.27556312	     14.50738626	     -3.09804192	     -1.14775513	    -58.29226969	      2.70973390	    -10.75146485	      0.61001809	     -2.35942150	      7.19867005	      5.90559523	     -8.58917032	      7.06829115	    -14.15732997	     -7.10737808	    -15.99940090	      5.24463716	     -2.92104143
      1.26633333	      2.50089602	      1.55553002	     -6.31525458	      0.29713615	      1.02548139	      0.27557169	     14.82073403	     -2.75746857	     -1.05967032	    -57.35827908	      3.30455623	    -10.84499729	      0.53258759	     -2.89375101	      6.99686542	      5.84615621	     -8.17013589	      7.04591116	    -14.13415128	     -7.14251577	    -16.04945704	      5.53890152	     -3.05434821
      1.27050000	      2.45817617	      1.35713516	     -6.38710852	      0.30217330	      1.02588130	      0.27558030	     15.16565621	     -2.42305679	     -0.96926604	    -56.37796394	      3.85710274	    -10.93506842	      0.45248794	     -3.37841177	      6.80226707	      5.78326980	     -7.75679807	      7.02347313	    -14.11111700	     -7.17874431	    -16.04600034	      5.82676913	     -3.17888549
      1.27466667	      2.45522605	      1.16063077	     -6.44804701	      0.30718858	      1.02627977	      0.27559400	     15.44942137	     -2.09535339	     -0.88215719	    -55.34863644	      4.38633645	    -11.04089117	      0.33685201	     -3.90335307	      6.61317066	      5.73049262	     -7.34812123	      6.99352525	    -14.07973252	     -7.22746176	    -16.09743749	      6.10427745	     -3.32276122
      1.27883333	      2.39501142	      0.96993627	     -6.50685692	      0.31222853	      1.02658847	      0.27561339	     15.77449509	     -1.76691496	     -0.78881776	    -54.26285803	      4.85921376	    -11.10580813	      0.28465766	     -4.35561207	      6.42382367	      5.64337428	     -6.96406391	      6.96544021	    -14.04545644	     -7.25192630	    -16.06443353	      6.37660834	     -3.40353906
      1.28300000	      2.43974671	      0.77059796	     -6.56191404	      0.31727678	      1.02698938	      0.27562675	     15.96246307	     -1.44796857	     -0.70666309	    -53.11853981	      5.23226136	    -11.22295073	      0.18598471	     -4.95576204	      6.23737846	      5.59545593	     -6.50911262	      6.94854000	    -13.99596092	     -7.29152127	    -16.16645148	      6.66578811	     -3.57328079
      1.28716667	      2.42974021	      0.59100920	     -6.60691781	      0.32232065	      1.02725912	      0.27564177	     16.19835586	     -1.14431840	     -0.62014133	    -51.93984606	      5.58470925	    -11.33627452	      0.07500089	     -5.47653616	      6.06600398	      5.53958509	     -6.09517032	      6.91331243	    -13.95461961	     -7.33463975	    -16.20015970	      6.92619807	     -3.71672771
      1.29133333	      2.37282988	      0.43548577	     -6.64127502	      0.32736713	      1.02741633	      0.27564870	     16.47361590	     -0.86479122	     -0.53375781	    -50.72785411	      5.92054332	    -11.40696820	      0.00582875	     -5.92509195	      5.91520150	      5.46463985	     -5.72237470	      6.86983032	    -13.90833736	     -7.36240627	    -16.16911894	      7.16635783	     -3.81970416
      1.29550000	      2.39847692	      0.27781279	     -6.67612671	      0.33242068	      1.02764396	      0.27567299	     16.63983323	     -0.59724615	     -0.45700994	    -49.46210699	      6.13220549	    -11.55938169	     -0.11597042	     -6.49692447	      5.76981451	      5.42365101	     -5.27626852	      6.84017483	    -13.85264543	     -7.40569672	    -16.24606095	      7.39897552	     -4.00678923
      1.29966667	      2.34686861	      0.12311799	     -6.69597608	      0.33748606	      1.02772759	      0.27567454	     16.87043095	     -0.32967766	     -0.38876026	    -48.15744792	      6.36726823	    -11.62698225	     -0.18474990	     -6.95312242	      5.61874955	      5.33769495	     -4.90007857	      6.78671287	    -13.79826734	     -7.43129405	    -16.22884136	      7.63455900	     -4.10925007
      1.30383333	      2.38250708	     -0.01154034	     -6.72198828	      0.34255581	      1.02787437	      0.27570279	     16.99165330	     -0.09279873	     -0.30674618	    -46.80706571	      6.45933134	    -11.80301809	     -0.30489798	     -7.53235893	      5.49889794	      5.29757536	     -4.45956803	      6.76359616	    -13.73092929	     -7.46959866	    -16.30118190	      7.83981676	     -4.30247735
      1.30800000	      2.39802255	     -0.13700937	     -6.73934179	      0.34762524	      1.02794769	      0.27571975	     17.12030860	      0.12899598	     -0.23543187	    -45.42335976	      6.55587938	    -11.93069718	     -0.43677794	     -8.07595481	      5.38587855	      5.23575972	     -4.04512197	      6.71617807	    -13.66075637	     -7.51061628	    -16.35525325	      8.03518133	     -4.45848251
      1.31216667	      2.37186374	     -0.24612916	     -6.75498454	      0.35271020	      1.02791862	      0.27574610	     17.27944762	      0.33674256	     -0.16011764	    -44.00356653	      6.59337309	    -12.05119786	     -0.55634582	     -8.56731968	      5.28497957	      5.16795529	     -3.64531780	      6.67996760	    -13.58783830	     -7.54566692	    -16.35012479	      8.21903257	     -4.60700706
      1.31633333	      2.32883681	     -0.34439853	     -6.75730475	      0.35780865	      1.02782330	      0.27574725	     17.44074368	      0.52128290	     -0.11240309	    -42.55297843	      6.64872679	    -12.10428911	     -0.63140476	     -9.02461253	      5.19318174	      5.07198380	     -3.27529748	      6.61085546	    -13.50647643	     -7.56834101	    -16.31907642	      8.39556846	     -4.71615571
      1.32050000	      2.35129861	     -0.43569201	     -6.77674222	      0.36288526	      1.02775679	      0.27580294	     17.51771821	      0.70214212	     -0.03038686	    -41.06071826	      6.55542394	    -12.29604796	     -0.75936510	     -9.57953226	      5.11636128	      5.01602329	     -2.84749396	      6.59640651	    -13.40872263	     -7.60071837	    -16.38825347	      8.54217135	     -4.91166781
      1.32466667	      2.33680273	     -0.51685954	     -6.78374435	      0.36798987	      1.02760558	      0.27583704	     17.61571104	      0.86435444	      0.02621275	    -39.53454828	      6.46813616	    -12.41686532	     -0.89712613	    -10.07928955	      5.04539677	      4.93146555	     -2.45113559	      6.55563606	    -13.30901188	     -7.63505738	    -16.39413566	      8.68772061	     -5.06682935
      1.32883333	      2.26536932	     -0.58243847	     -6.79073071	      0.37311836	      1.02732427	      0.27586255	     17.76472083	      1.00707782	      0.06354323	    -37.99100452	      6.38438443	    -12.43733798	     -0.98257708	    -10.50201832	      4.98595172	      4.82173434	     -2.08620961	      6.49697361	    -13.21416035	     -7.65622320	    -16.33193991	      8.82214377	     -5.17041688
      1.33300000	      2.28406844	     -0.63962833	     -6.80766683	      0.37822009	      1.02712945	      0.27592671	     17.79427805	      1.14203103	      0.14333168	    -36.39438229	      6.18273669	    -12.59734367	     -1.11635519	    -11.03979317	      4.94626356	      4.74885917	     -1.68243956	      6.47943656	    -13.08130277	     -7.68512937	    -16.37958647	      8.94288864	     -5.34847861
      1.33716667	      2.23167140	     -0.68732325	     -6.82041164	      0.38334821	      1.02678969	      0.27599198	     17.88627172	      1.26696054	      0.20030291	    -34.77667790	      5.98132414	    -12.66798765	     -1.24041143	    -11.48140981	      4.90830450	      4.64348835	     -1.31978671	      6.44877964	    -12.95575254	     -7.71115321	    -16.33960199	      9.05428628	     -5.48189944
